<?xml version="1.0" encoding="utf-8"?>
<!-- Generator: Adobe Illustrator 24.3.0, SVG Export Plug-In . SVG Version: 6.00 Build 0)  -->
<svg version="1.1" id="Layer_1" xmlns="http://www.w3.org/2000/svg" xmlns:xlink="http://www.w3.org/1999/xlink" x="0px" y="0px"
	 viewBox="0 0 92.37 26.53" style="enable-background:new 0 0 92.37 26.53;" xml:space="preserve">
<style type="text/css">
	.st0{fill:#0075AF;fill-opacity:0.05;stroke:#006699;stroke-miterlimit:10;}
</style>
<path class="st0" d="M33.22,26.03H2.9c-1.32,0-2.4-1.07-2.4-2.4V2.9c0-1.32,1.07-2.4,2.4-2.4h30.33c1.32,0,2.4,1.07,2.4,2.4v20.74
	C35.62,24.96,34.55,26.03,33.22,26.03z"/>
<g>
	<path d="M16.79,8.42l-0.35,0.81c-1-0.51-2-0.76-2.99-0.76c-1.2,0-2.25,0.36-3.14,1.07c-0.89,0.71-1.46,1.66-1.71,2.84
		c-0.08,0.41-0.13,0.82-0.13,1.22c0,1.39,0.46,2.56,1.39,3.51c0.93,0.95,2.07,1.41,3.43,1.39c1.09-0.02,2.17-0.34,3.24-0.95
		l0.38,0.75c-0.31,0.18-0.55,0.31-0.74,0.39c-0.91,0.42-1.88,0.64-2.92,0.67c-1.62,0.04-3-0.5-4.12-1.62
		c-1.12-1.12-1.68-2.5-1.68-4.14c0-0.46,0.05-0.93,0.14-1.39c0.29-1.4,0.97-2.52,2.03-3.36c1.06-0.84,2.31-1.26,3.74-1.26
		c1.03,0,2.07,0.23,3.11,0.68C16.55,8.3,16.65,8.35,16.79,8.42z"/>
	<path d="M17.28,11.85v-0.79h1.34V8.48h0.95v2.58h2.39v0.79h-2.39v5.12c0,1.13,0.36,1.69,1.09,1.69c0.34,0,0.72-0.11,1.15-0.33
		l0.33,0.59L22,19.01l-0.17,0.08c-0.47,0.21-0.92,0.32-1.33,0.32c-1.25,0-1.88-0.73-1.88-2.2v-5.36H17.28z"/>
	<path d="M23.02,19.19v-8.12h0.95v1.3c0.64-1.06,1.59-1.6,2.85-1.6v0.85c-0.35,0-0.7,0.06-1.04,0.17c-0.91,0.31-1.51,0.83-1.8,1.56
		v5.83H23.02z"/>
	<path d="M27.73,19.19V7.13h0.95v12.06H27.73z"/>
</g>
<path class="st0" d="M89.47,26.03H59.15c-1.32,0-2.4-1.07-2.4-2.4V2.9c0-1.32,1.07-2.4,2.4-2.4h30.33c1.32,0,2.4,1.07,2.4,2.4v20.74
	C91.87,24.96,90.8,26.03,89.47,26.03z"/>
<path d="M46.69,8.44v3.97c0,0.17,0.13,0.3,0.3,0.3h3.27v1.09h-3.27c-0.17,0-0.3,0.13-0.3,0.3v4h-1.01v-4c0-0.17-0.13-0.3-0.3-0.3
	h-3.27V12.7h3.27c0.17,0,0.3-0.13,0.3-0.3V8.44H46.69z"/>
<g>
	<path d="M72.31,19.3V7.24h2.45c1.44,0,2.54,0.28,3.3,0.85c0.76,0.56,1.14,1.36,1.14,2.39c0,0.32-0.04,0.66-0.12,1.02
		c-0.39,1.78-1.8,2.66-4.24,2.66H73.4v5.14H72.31z M73.4,13.23h1.31c1.95,0,3.07-0.68,3.33-2.04c0.04-0.22,0.07-0.44,0.07-0.65
		c0-0.75-0.29-1.33-0.87-1.75c-0.58-0.42-1.43-0.63-2.55-0.63H73.4V13.23z"/>
</g>
<g>
</g>
<g>
</g>
<g>
</g>
<g>
</g>
<g>
</g>
<g>
</g>
</svg>
