<?xml version="1.0" encoding="utf-8"?>
<!-- Generator: Adobe Illustrator 22.0.0, SVG Export Plug-In . SVG Version: 6.00 Build 0)  -->
<svg version="1.1" id="Layer_1" xmlns="http://www.w3.org/2000/svg" xmlns:xlink="http://www.w3.org/1999/xlink" x="0px" y="0px"
	 viewBox="0 0 266.5 168.9" style="enable-background:new 0 0 266.5 168.9;" xml:space="preserve">
<style type="text/css">
	.st0{fill:#006193;}
	.st1{display:none;}
	.st2{display:inline;fill:#898989;}
	.st3{fill:#FFFFFF;}
</style>
<rect class="st0" width="266.5" height="168.9"/>
<g id="Layer_2_1_" class="st1">
	<rect x="193" y="-49.8" class="st2" width="500" height="250"/>
</g>
<g id="Layer_3">
</g>
<g id="Layer_4">
	<g>
		<path class="st3" d="M51.9,121.2h-9v32.1h-8.7v-32.1h-9v-4.7h26.8V121.2z"/>
		<path class="st3" d="M80.5,153.2h-8v-20.8c0-1.2-0.5-1.9-1.4-1.9h-6.7c-0.5,0-0.9,0.2-1.1,0.4c-0.2,0.2-0.3,0.7-0.3,1.5v20.8h-8
			v-36.7h8v11.8h0c0.3-0.7,0.7-1.3,1-1.5c0.4-0.3,0.9-0.4,1.6-0.4h9.7c3.5,0,5.2,2.4,5.2,7V153.2z"/>
		<path class="st3" d="M109.6,153.2h-6.9l-0.3-2.8h-0.1c-0.2,0.8-0.6,1.5-1,2s-1.1,0.7-1.9,0.7H88.9c-0.9,0-1.7-0.2-2.4-0.5
			c-0.7-0.3-1.2-0.8-1.6-1.5c-0.4-0.7-0.7-1.6-1-2.7c-0.2-1.1-0.3-2.4-0.3-4v-1.2c0-1.5,0.1-2.9,0.3-4c0.2-1.1,0.5-2,0.9-2.7
			c0.4-0.7,1-1.2,1.6-1.5c0.7-0.3,1.5-0.5,2.4-0.5h12.5v-3.1c0-0.7-0.4-1.1-1.1-1.1H89v-4.1h15.2c3.6,0,5.4,2.4,5.4,7
			C109.6,133.3,109.6,153.2,109.6,153.2z M101.5,138.7h-8.5c-0.9,0-1.3,0.6-1.3,1.8v6.6c0,1.1,0.4,1.8,1.2,1.8h7.3
			c0.5,0,0.8-0.2,1-0.4c0.2-0.2,0.3-0.7,0.3-1.4L101.5,138.7L101.5,138.7z M102.4,117l-5,6.3H94l3.2-6.3
			C97.2,117,102.4,117,102.4,117z"/>
		<path class="st3" d="M138.3,153.2h-8v-20.8c0-1.2-0.5-1.9-1.4-1.9h-6.7c-0.5,0-0.9,0.2-1.1,0.4c-0.2,0.2-0.3,0.7-0.3,1.5v20.8h-8
			v-27h7.7h2.6h10c3.4,0,5.2,2.4,5.2,7L138.3,153.2L138.3,153.2z"/>
		<path class="st3" d="M167.6,153.2h-8v-20.8c0-1.2-0.5-1.9-1.4-1.9h-6.7c-0.5,0-0.9,0.2-1.1,0.4c-0.2,0.2-0.3,0.7-0.3,1.5v20.8H142
			v-36.7h8v11.8h0.1c0.3-0.7,0.7-1.3,1-1.5c0.4-0.3,0.9-0.4,1.6-0.4h9.7c3.5,0,5.2,2.4,5.2,7V153.2z"/>
		<path class="st3" d="M211.5,153.2h-17.9c-2,0-3.3-0.7-4.3-1.9c-1-1.2-1.5-3-1.5-5.4v-22.3c0-2.3,0.5-4.1,1.5-5.3
			c1-1.3,2.4-2,4.3-2h17.9v4.7H198c-1.1,0-1.5,0.7-1.5,2v23.4c0,0.7,0.2,1.2,0.4,1.5c0.2,0.3,0.7,0.5,1.1,0.5h13.5V153.2z"/>
		<path class="st3" d="M240.8,153.2h-6.9l-0.3-2.8h-0.1c-0.2,0.8-0.6,1.5-1,2c-0.4,0.5-1.1,0.7-1.9,0.7h-10.4
			c-0.9,0-1.7-0.2-2.4-0.5c-0.7-0.3-1.2-0.8-1.6-1.5c-0.4-0.7-0.7-1.6-1-2.7c-0.2-1.1-0.3-2.4-0.3-4v-1.2c0-1.5,0.1-2.9,0.3-4
			c0.2-1.1,0.5-2,0.9-2.7c0.4-0.7,1-1.2,1.6-1.5c0.7-0.3,1.5-0.5,2.4-0.5h12.5v-3.1c0-0.7-0.4-1.1-1.1-1.1h-11.5v-4.1h15.2
			c3.6,0,5.4,2.4,5.4,7L240.8,153.2L240.8,153.2z M232.8,138.7h-8.5c-0.9,0-1.3,0.6-1.3,1.8v6.6c0,1.1,0.4,1.8,1.2,1.8h7.3
			c0.5,0,0.8-0.2,1-0.4c0.2-0.2,0.3-0.7,0.3-1.4L232.8,138.7L232.8,138.7z"/>
	</g>
</g>
<g id="Layer_5">
	<g>
		<path class="st3" d="M107.9,83.8c-0.5,0-1.1,0.2-1.9,0.7c-0.8,0.5-1.2,0.9-1.2,1.3c0,0.5,0.3,0.7,0.9,0.7c1.8,0,2.7-0.4,2.7-1.2
			c0,0,0-0.1,0-0.2s0-0.2,0-0.2v-0.1c0-0.1,0-0.1,0-0.2C108.4,84.1,108.2,83.8,107.9,83.8z"/>
		<path class="st3" d="M71,75.6c-0.6,0-1.1,1.1-1.5,3.3c-0.4,1.9-0.6,3.3-0.6,4.2c0,0.7,0.1,1.4,0.2,2.1c0.2,1.1,0.4,1.7,0.8,1.7
			c0.7,0,1.3-1,1.7-2.9c0.3-1.5,0.6-2.8,0.6-3.8c0-0.7-0.1-1.6-0.2-2.6C71.6,76.4,71.3,75.6,71,75.6z"/>
		<path class="st3" d="M85.7,75.5c-0.4,0-0.8,0.2-1.2,0.4c-0.5,0.3-0.7,0.7-0.7,1v0.5c0,0.3,0,0.7,0,0.9c0,0.5,0,1.1,0,1.7v1.6v2.3
			c0,0.5,0,1.1,0,1.7c0,0,0,0.1,0,0.2c0,0.3,0.1,0.5,0.2,0.5c0.2,0,0.8-1,1.5-2.9c0.9-2.3,1.3-4.1,1.3-5.5
			C86.8,76.3,86.5,75.5,85.7,75.5z"/>
		<path class="st3" d="M240.4,79.4c-2.8-19.9-11.6-30.5-11.6-30.5c-6.1-8.1-17.8-13.7-28.9-13c-11.1,0.7-26.9,6.4-26.9,6.4
			c-14.1,8-24.8-1.6-24.8-1.6c-7.4-4.7-20.1-13.1-20.1-13.1c-34.4-21.3-67.3-7.1-67.3-7.1c-22,8.1-29.4,32.2-29.4,32.2
			c-8.1,19.1-6.4,55-6.4,55h216.6C242.2,103.3,240.4,79.4,240.4,79.4z M61.1,71.1c0.1,1.1,0.1,1.9,0.1,2.4s0,1.1-0.1,2
			c0,0.9-0.1,1.6-0.1,2s0,1.1,0.1,2c0,0.9,0.1,1.5,0.1,2c0,0.7-0.1,1.6-0.2,2.9c-0.1,1.3-0.2,2.3-0.2,2.9v1c0,0.7-0.2,1.1-0.8,1.1
			c-2.1,0-3.2-0.7-3.2-2.1v-0.7c0-0.7,0-1.6-0.1-2.9s-0.1-2.3-0.1-2.9c0-0.5,0-1,0-1.5v-0.8c0-0.7-0.2-1.1-0.4-1.1
			c-0.2,0-0.7,0.1-1.1,0.2c-0.5,0.1-0.9,0.2-1.1,0.2c-0.1,0-0.2,0-0.3,0s-0.2,0-0.3,0c-0.2,0-0.7,0.1-1.7,0.2
			c-0.1,0-0.2,0.4-0.2,1.2v2.1c0,1,0,2-0.1,3l-0.1,1.5c0,0.2,0,0.4,0,0.7c0,0.3,0,0.6,0,0.7s0,0.4,0,0.7s0,0.5,0,0.7
			c0,0.1,0,0.2,0,0.4c0,0.2,0,0.3,0,0.4c0,0.4-0.2,0.6-0.5,0.6c-0.1,0-0.2,0-0.5-0.1c-0.2,0-0.3-0.1-0.5-0.1h-0.4
			c-0.7,0-1.3-0.3-1.9-0.9c-0.4-0.4-0.6-1.6-0.6-3.6s0-4-0.1-6.3l-0.1-3.8c0-1,0.1-2.4,0.2-4.2c0.1-1.9,0.2-3.3,0.2-4.2
			c0-0.2,0-0.6,0-1s0-0.7,0-1c0-0.4,0.1-0.8,0.3-1.3c0.2-0.6,0.6-0.8,0.9-0.8c1.2,0,2,0.1,2.3,0.2c0.6,0.2,0.8,0.9,0.8,2
			c0,0.4,0,1-0.1,1.9c0,0.8-0.1,1.5-0.1,1.9c0,0.4,0,1.1,0.1,1.9c0,0.8,0.1,1.5,0.1,1.9c0,0.1,0,0.2,0,0.4c0,0.2,0,0.3,0,0.4
			c0,0.2,0.1,0.2,0.2,0.2c0.2,0,0.3,0,0.6,0c0.2,0,0.4,0,0.6,0c0.1,0,0.2,0,0.4,0c0.2,0,0.2,0,0.4,0c0.2,0,0.6,0,1.1-0.1
			c0.5-0.1,0.8-0.1,1.1-0.1c0.1,0,0.2,0,0.3,0s0.2,0,0.3,0c0.2,0,0.4-2.7,0.4-8c0-0.4,0-0.9-0.1-1.6c0-0.7-0.1-1.3-0.1-1.6
			c0-0.6,0.1-0.9,0.2-1.1s0.5-0.3,1.1-0.3c0.7,0,1.3,0.2,1.9,0.4c0.8,0.3,1.1,0.8,1.1,1.4c0,0.2,0,0.3,0,0.7c0,0.2,0,0.5,0,0.7
			s0,0.4,0.1,0.7c0,0.3,0.1,0.6,0.1,0.7c0,0.4,0,1-0.1,1.8S61,68.2,61,68.6C61.1,69.3,61.1,70.1,61.1,71.1z M73.2,96.8
			c-0.2,0.6-0.4,0.8-0.6,0.8h-0.1h-0.1l0,0c-0.1,0.3-0.6,0.6-1.4,0.8c0,0-0.4,0.2-1.1,0.4c-0.5,0-1-0.2-1.5-0.8
			c-0.6-0.6-0.8-1.1-0.8-1.5c0-0.8,0.2-1.5,0.6-2c0.2-0.4,0.6-0.9,1.1-1.5c0.3-0.2,0.6-0.3,0.7-0.3s0.2,0.1,0.6,0.2
			C70.9,93,71,93,71.1,93s0.2,0,0.3,0l0,0c0.2,0,0.7,0.4,1.1,1.1c0.6,0.7,0.8,1.3,0.8,1.6C73.4,96,73.3,96.3,73.2,96.8z M77.3,79.2
			c-0.4,1.3-0.7,2-1.1,2c-0.1,0-0.1,0-0.2,0v0.1c0,1.8-0.4,3.7-1.1,5.5c-1,2.4-2.2,3.6-3.7,3.6c-0.4,0-1-0.2-1.6-0.5
			c-1.4-0.7-2.4-1.1-2.8-1.5c-1.3-0.9-2-2.8-2-5.9c0-3,0.7-5.9,2-8.8c0.6-1.2,1.2-1.9,2.1-1.9c0.3,0,1,0.2,2,0.4s1.6,0.5,2,0.7
			c1.1,0.5,1.9,1.4,2.4,2.8v0.1l0.6-2.9c0.2-0.6,0.2-1,0.2-1.1c0-0.1,0.2-0.2,0.7-0.6c0.4-0.2,0.7-0.4,0.7-0.4
			c0.3,0,0.7,0.2,1.2,0.4c0.5,0.3,0.7,0.6,0.7,0.9c0,0.5-0.6,2.2-1.6,5.1C77.8,77.7,77.6,78.2,77.3,79.2z M90.1,82.2
			c-0.4,1.5-0.9,2.7-1.4,3.7c-1.4,2.7-2.5,4.1-3.3,4.1c-0.2,0-0.3,0-0.6-0.1c-0.2-0.1-0.4-0.1-0.5-0.1c-0.4,0-0.6,0.3-0.6,0.9V91
			c0,0.3,0,0.7,0,1.4c0,0.7,0,1.1,0,1.4c0,0.4,0,1-0.1,1.7c-0.1,0.7-0.1,1.3-0.1,1.7v0.7c0,1.1-0.2,1.6-0.8,1.6
			c-0.6,0-1.1-0.2-1.9-0.6c-0.8-0.5-1.2-0.9-1.2-1.4c0-0.2,0-0.3,0-0.7s0-0.5,0-0.7c0-0.2,0-0.7-0.1-1.1c-0.1-0.5-0.1-0.9-0.1-1.1
			c0-0.3,0-0.9,0.1-1.6c0.1-0.7,0.1-1.2,0.1-1.6c0-0.2,0-0.6,0-1s0-0.8,0-1c0-0.6,0-1.5,0-2.7c0-1.2,0-2.1,0-2.7c0-0.2,0-0.7,0-1.2
			c0-0.5,0-0.9,0-1.2c0.1-0.4,0.1-0.7,0.1-0.8c0-0.2-0.2-0.4-0.6-0.8s-0.6-0.7-0.6-0.9c0,0.1,0.2-0.2,0.6-1s0.6-1.5,0.6-2.1
			c0-0.2,0-0.4,0-0.7c0-0.3,0-0.5,0-0.7c0-1.2,0-2,0-2.1c0.1-1.1,0.4-1.6,0.9-1.6c0.6,0,1.1,0.2,1.9,0.6c0.7,0.5,1.1,0.9,1.1,1.5
			v0.2c0,0.2,0,0.2,0.1,0.2s0.2,0,0.4-0.1c0.2,0,0.3-0.1,0.4-0.1c1.8,0,3.2,0.6,4.3,1.6c1.1,1.1,1.7,2.5,1.7,4.3
			C90.9,79.3,90.6,80.6,90.1,82.2z M112,81.2c0,1.1,0,1.8,0,2.3c0,0.2,0,0.6,0,1.1s0,0.8,0,1.1c0,0.3,0,0.7,0,1.3c0,0.6,0,1.1,0,1.4
			c0,0.4,0,0.7,0,1.1c0,0.1,0,0.2,0,0.2c0,0.6-0.4,0.9-1.1,0.9c-1,0-1.7-0.4-2.2-1.3c-1.2,0.5-2.2,0.7-2.9,0.7
			c-0.9,0-1.7-0.4-2.5-1.3s-1.2-1.7-1.2-2.6c0-1.4,0.4-2.4,1.2-3.2c0.5-0.4,1.1-0.8,1.9-1.3c0.9-0.5,1.6-0.8,2.1-0.8
			c0.1,0,0.2,0,0.4,0s0.3,0,0.4,0c0.3,0,0.5-0.2,0.5-0.7c0-0.2,0-0.5,0-0.9c0-0.4,0-0.7,0-0.9s0-0.4,0-0.7c0-0.3,0-0.6,0-0.7
			c0-0.6-0.2-0.9-0.4-0.9s-0.6,0.4-1.1,1.3c-0.3,0.5-0.7,1-1,1.4c-0.2,0.2-0.3,0.6-0.6,1c-0.3,0.6-0.6,0.8-0.9,0.8
			c-0.3,0-0.8-0.2-1.3-0.4c-0.6-0.3-0.9-0.7-0.9-1c0-0.3,0.2-1.1,0.8-2.3c0.5-1.1,0.9-1.8,1.2-2.2l0.2-0.2c1.1-1.4,2-2.1,2.4-2.1
			c0.1,0,0.6,0.2,1.4,0.6c0.9,0.5,1.4,0.7,1.5,0.7c1,0.4,1.6,1.1,2,2.3c0.2,0.7,0.2,1.7,0.2,3.2C112.1,79.4,112.1,80.2,112,81.2z
			 M112.4,70.4c-1.9,0-3-0.2-3.3-0.7l-0.4-0.6c-0.6-0.8-1-1.2-1.1-1.2c-0.2,0-0.7,0.4-1.2,1.3c-0.1,0.2-0.2,0.3-0.3,0.5
			c-0.3,0.4-1.4,0.7-3.3,0.7c-0.5,0-0.7-0.2-0.7-0.7c0-0.4,0.8-1.5,2.5-3.3c0.9-1.1,1.5-1.5,1.5-1.5s0.2,0,0.2,0c0.1,0,0.2,0,0.2,0
			c0.2,0,0.3,0,0.6-0.1c0.2-0.1,0.5-0.1,0.6-0.1c0.2,0,0.3,0,0.6,0.1c0.2,0.1,0.4,0.1,0.6,0.1c0,0,0.1,0,0.2,0s0.2,0,0.2,0
			c0.2,0,0.7,0.5,1.5,1.5c1.7,1.9,2.5,3,2.5,3.3C113.2,70.2,112.9,70.4,112.4,70.4z M132.5,80.4c0,0.9-0.2,3.7-0.6,8.3
			c-0.1,0.6-0.2,0.9-0.2,1.1c-0.2,0.2-0.5,0.2-1.1,0.2c-0.5,0-1-0.2-1.5-0.4c-0.6-0.3-0.8-0.7-0.8-1.1c0-0.2,0-0.5,0.1-1.1
			c0.2-2.3,0.2-4.4,0.2-6.4c0-1.4,0-2.6,0.1-3.7v-0.2c0-1.1-0.2-1.6-0.6-1.6c-0.3,0-0.7,0.7-1.2,2c-0.4,1.1-0.7,1.9-0.7,2.4
			c-0.2,0.7-0.2,1.8-0.3,3.1v0.7c-0.2,2.8-0.3,4.1-0.3,3.8v1c0,0.5-0.2,0.7-0.8,0.7c-0.2,0-0.5-0.1-0.9-0.2s-0.6-0.2-0.7-0.2
			c-0.6,0-1-0.3-1.1-0.9c0-0.2-0.1-0.7-0.1-1.7c0-0.7,0-1.8,0.1-3.3c0.1-1.5,0.1-2.5,0.1-3.3c0-2.4-0.2-3.5-0.5-3.5
			c-0.8,0-1.5,1.1-2,3.5c-0.4,1.8-0.6,3.3-0.6,4.5c0,0.3,0,0.8,0.1,1.5c0,0.7,0.1,1.1,0.1,1.5c0,2.2-0.2,3.3-0.8,3.3
			c-1.3,0-2-0.2-2.2-0.8c0-0.1-0.2-0.2-0.6-0.3c-0.2-0.2-0.4-0.5-0.4-1.1c0-0.5,0-1,0-1.5v-0.9v-3.7c0-0.2,0-0.7,0-1.1
			c0-0.5,0-0.9,0-1.1c0-0.7,0-1.9-0.1-3.3c-0.1-1.5-0.1-2.6-0.1-3.3c0-0.7,0.5-1,1.5-1c1.2,0,1.8,0.2,1.8,0.8c0,0.1,0,0.2,0,0.2
			c-0.1,0.7-0.1,1.3-0.1,1.8v0.2c0,0.1,0.1,0.1,0.2,0.1s0.2-0.2,0.2-0.3c1-1.5,2-2.1,2.8-2.1c1,0,2,0.6,2.9,1.8
			c0.2,0.2,0.2,0.2,0.2,0.2c0.1,0,0.2-0.2,0.3-0.4c0.1-0.2,0.2-0.4,0.3-0.6c0.7-1,1.8-1.4,3.4-1.4c1.5,0,2.4,0.5,2.9,1.4
			c0.3,0.7,0.6,1.9,0.6,3.5v3H132.5z"/>
	</g>
</g>
</svg>
